<svg class="h-8 md:h-10 lg:h-14 w-auto left-0 sm:block hidden top-0 fill-current absolute -translate-x-9 -translate-y-8" viewBox="0 0 1039 260" fill="none" xmlns="http://www.w3.org/2000/svg"><path  fill="#fff" d="M1030.69.04 824.86 19.27c-4.42.42-6.19 3.9-5.8 7.27a6.296 6.296 0 0 0-.8 4.38l1.89 12.72a7.453 7.453 0 0 0-1.22 1.72c-12 23.51-16 49.83-20.27 75.66l-.08.13a5.18 5.18 0 0 0-.59 3.53 6.835 6.835 0 0 0-.21 1c-.46 4.06 2.47 6.87 6.23 7.82l83.6 21a5.474 5.474 0 0 0 3.21-.21l10.95 13.56c2.85 3.54 8.42 3.78 11.23.24l124.34-156.85c3.81-4.81-.57-11.78-6.65-11.2Zm-160.9 104.6-51 9.6 19.5-33.79c.27-.482.456-1.006.55-1.55L961 41.74a1229.87 1229.87 0 0 0-91.21 62.9Zm-37.07-72.17 160.15-15-155.33 47.24c-1.613-10.733-3.22-21.48-4.82-32.24Zm-8.65 37.69.66 4.47c.039.28.099.558.18.83l-4.71 8.16c1.13-4.58 2.4-9.03 3.87-13.46Zm6.8 55.95 32.28-6.09 14.35 17.79-46.63-11.7Zm76.31 26.36a31540.184 31540.184 0 0 0-29.27-36.26 1221.856 1221.856 0 0 1 123.36-82.36l-94.09 118.62ZM145.504 165.206c2.082 3.043 7.44 4.505 10.449 1.824a294.743 294.743 0 0 1 139.255-69.28c25.661-5.004 52.425-7.084 78.489-4.513 3.689.366 7.356.918 10.989 1.653-11.927 13.083-17.992 30.444-9.449 48.277 5.182 10.808 14.18 19.886 25.956 23.087a30.197 30.197 0 0 0 31.281-10.483c7.708-9.801 9.44-23.173 6.733-35.135-2.993-13.115-11.295-23.04-22.397-30.046a69.743 69.743 0 0 1 9.175-3.225c26.917-7.366 56.421-1.45 81.975 8.124 29.598 11.094 56.49 27.956 84.106 42.971 48.128 26.164 108.4 48.163 160.909 20.277a92.401 92.401 0 0 0 15.528-10.379c7.401-6.126-1.185-18.436-8.67-12.294-21.136 17.49-48.961 22.56-75.753 19.777-33.412-3.481-63.718-18.748-92.708-34.822-29.967-16.63-59.417-34.344-92.448-44.304-28.75-8.672-62.019-11.768-90.152.825a74.587 74.587 0 0 0-9.559 5.171c-10.727-3.26-22.14-4.491-33.207-5.037a302.992 302.992 0 0 0-43.721.95 309.941 309.941 0 0 0-158.616 62.464 264.228 264.228 0 0 0-16.365 13.626c-3.024 2.762-4.283 6.882-1.8 10.492Zm279.651-29.512c-1.295 8.525-7.144 16.955-16.658 16.67-8.601-.264-15.893-7.638-19.402-14.94-7.275-15.175.331-28.333 12.086-37.58 14.901 6.249 26.747 17.346 23.929 35.83l.045.02Z" class=""></path></svg>