<?xml version="1.0" encoding="utf-8"?><!-- Uploaded to: SVG Repo, www.svgrepo.com, Generator: SVG Repo Mixer Tools -->
<svg fill="#ffffff" width="800px" height="800px" viewBox="0 0 24 24" id="rocket" data-name="Flat Color" xmlns="http://www.w3.org/2000/svg" class="icon flat-color"><path id="secondary" d="M9.15,11.09a32.87,32.87,0,0,0-.09,5.85,1,1,0,0,1-1,1.06H4a1,1,0,0,1-1-1,6.91,6.91,0,0,1,4.87-7,1,1,0,0,1,.93.19A1,1,0,0,1,9.15,11.09Zm7-1.07a1,1,0,0,0-.93.19,1,1,0,0,0-.35.88,32.87,32.87,0,0,1,.09,5.85,1,1,0,0,0,1,1.06H20a1,1,0,0,0,1-1A6.91,6.91,0,0,0,16.13,10ZM15,17H9a1,1,0,0,0-1,1v2a2,2,0,0,0,2,2h4a2,2,0,0,0,2-2V18A1,1,0,0,0,15,17Z" style="fill: rgb(127, 255, 0);"></path><path id="primary" d="M13.3,2.48a2,2,0,0,0-2.6,0C9,3.94,6.25,7.91,7.13,18.09a1,1,0,0,0,1,.91h7.74a1,1,0,0,0,1-.91C17.75,7.91,15,3.94,13.3,2.48Z" style="fill: rgb(255, 255, 255);"></path></svg>